<svg width="60" height="31" viewBox="0 0 60 31" fill="none" xmlns="http://www.w3.org/2000/svg">
<path d="M13.9564 10.944C15.2053 11.2101 16.2085 11.8346 16.9661 12.8173C17.7236 13.7796 18.1024 14.8852 18.1024 16.1342C18.1024 17.9359 17.4677 19.3691 16.1983 20.4337C14.9494 21.4779 13.1988 22 10.9467 22H0.904096V0.44072H10.6088C12.7996 0.44072 14.5092 0.942337 15.7376 1.94557C16.9865 2.9488 17.611 4.31033 17.611 6.03016C17.611 7.29956 17.2732 8.35398 16.5975 9.19342C15.9424 10.0329 15.062 10.6164 13.9564 10.944ZM6.15572 9.16271H9.59537C10.4553 9.16271 11.1105 8.97844 11.5609 8.60991C12.0318 8.2209 12.2672 7.65786 12.2672 6.92079C12.2672 6.18372 12.0318 5.62068 11.5609 5.23167C11.1105 4.84266 10.4553 4.64816 9.59537 4.64816H6.15572V9.16271ZM10.0253 17.7619C10.9057 17.7619 11.5814 17.5673 12.0523 17.1783C12.5437 16.7689 12.7893 16.1853 12.7893 15.4278C12.7893 14.6703 12.5334 14.0765 12.0216 13.6465C11.5302 13.2166 10.8443 13.0016 9.96391 13.0016H6.15572V17.7619H10.0253ZM20.1041 13.4009C20.1041 11.6401 20.4317 10.0943 21.0869 8.76346C21.7625 7.43264 22.6736 6.40893 23.8202 5.69234C24.9667 4.97574 26.2464 4.61745 27.6591 4.61745C28.8671 4.61745 29.9215 4.86314 30.8223 5.35452C31.7437 5.8459 32.45 6.49083 32.9414 7.28932V4.86314H38.193V22H32.9414V19.5738C32.4296 20.3723 31.713 21.0172 30.7916 21.5086C29.8908 22 28.8364 22.2457 27.6284 22.2457C26.2361 22.2457 24.9667 21.8874 23.8202 21.1708C22.6736 20.4337 21.7625 19.3998 21.0869 18.069C20.4317 16.7177 20.1041 15.1616 20.1041 13.4009ZM32.9414 13.4316C32.9414 12.1212 32.5729 11.0873 31.8358 10.3297C31.1192 9.57219 30.2388 9.19342 29.1947 9.19342C28.1505 9.19342 27.2598 9.57219 26.5228 10.3297C25.8062 11.0668 25.4479 12.0905 25.4479 13.4009C25.4479 14.7112 25.8062 15.7554 26.5228 16.5334C27.2598 17.2909 28.1505 17.6697 29.1947 17.6697C30.2388 17.6697 31.1192 17.2909 31.8358 16.5334C32.5729 15.7759 32.9414 14.7419 32.9414 13.4316ZM48.5031 4.61745C49.7111 4.61745 50.7655 4.86314 51.6664 5.35452C52.5877 5.8459 53.2941 6.49083 53.7855 7.28932V4.86314H59.0371V21.9693C59.0371 23.5458 58.7197 24.9688 58.085 26.2381C57.4708 27.528 56.5188 28.5517 55.2289 29.3093C53.9595 30.0668 52.3727 30.4456 50.4687 30.4456C47.9299 30.4456 45.8722 29.8416 44.2957 28.6336C42.7192 27.4461 41.8183 25.8287 41.5931 23.7813H46.7833C46.9471 24.4364 47.3361 24.9483 47.9503 25.3168C48.5646 25.7058 49.3221 25.9003 50.223 25.9003C51.3081 25.9003 52.168 25.583 52.8027 24.9483C53.4579 24.3341 53.7855 23.3411 53.7855 21.9693V19.5431C53.2736 20.3416 52.5673 20.9968 51.6664 21.5086C50.7655 22 49.7111 22.2457 48.5031 22.2457C47.0904 22.2457 45.8108 21.8874 44.6642 21.1708C43.5177 20.4337 42.6066 19.3998 41.9309 18.069C41.2758 16.7177 40.9482 15.1616 40.9482 13.4009C40.9482 11.6401 41.2758 10.0943 41.9309 8.76346C42.6066 7.43264 43.5177 6.40893 44.6642 5.69234C45.8108 4.97574 47.0904 4.61745 48.5031 4.61745ZM53.7855 13.4316C53.7855 12.1212 53.4169 11.0873 52.6799 10.3297C51.9633 9.57219 51.0829 9.19342 50.0387 9.19342C48.9945 9.19342 48.1039 9.57219 47.3668 10.3297C46.6502 11.0668 46.2919 12.0905 46.2919 13.4009C46.2919 14.7112 46.6502 15.7554 47.3668 16.5334C48.1039 17.2909 48.9945 17.6697 50.0387 17.6697C51.0829 17.6697 51.9633 17.2909 52.6799 16.5334C53.4169 15.7759 53.7855 14.7419 53.7855 13.4316Z" fill="#F59B00"/>
</svg>
